<svg width="23" height="23" viewBox="0 0 23 23" fill="none" xmlns="http://www.w3.org/2000/svg">
<path d="M22.4503 4.36409C22.0197 3.87697 21.4059 3.60867 20.7222 3.60867H4.19142L4.02504 2.37331C3.84573 1.0425 2.91016 0 1.89504 0H0.680409C0.304589 0 0 0.301643 0 0.673828C0 1.04601 0.304589 1.34766 0.680409 1.34766H1.89504C2.11334 1.34766 2.57563 1.80477 2.6761 2.55142L4.62377 17.018C4.70953 17.6557 5.04034 18.2527 5.55525 18.6991C5.9371 19.0302 6.3884 19.2504 6.86114 19.3426C6.66854 19.6933 6.55903 20.0952 6.55903 20.5218C6.55903 21.8884 7.68171 23 9.06148 23C10.4413 23 11.5639 21.8884 11.5639 20.5218C11.5639 20.1146 11.4636 19.7305 11.2872 19.3913H14.8526C14.6761 19.7305 14.5758 20.1146 14.5758 20.5218C14.5758 21.8884 15.6985 23 17.0783 23C18.458 23 19.5807 21.8884 19.5807 20.5218C19.5807 20.1146 19.4804 19.7305 19.3039 19.3913H21.0866C21.4623 19.3913 21.7671 19.0895 21.7671 18.7175C21.7671 18.3453 21.4623 18.0437 21.0866 18.0437H7.36099C6.69618 18.0437 6.06042 17.4923 5.97254 16.8397L5.83025 15.7825H11.1259C11.1261 15.7825 11.1263 15.7827 11.1265 15.7827C11.1266 15.7827 11.1268 15.7825 11.1272 15.7825H15.4984C15.4986 15.7825 15.4988 15.7827 15.4991 15.7827C15.4993 15.7827 15.4993 15.7825 15.4995 15.7825H19.2646C19.9142 15.7825 20.5554 15.5367 21.0703 15.0904C21.5853 14.644 21.9161 14.0469 22.0018 13.4092L22.9778 6.16026C23.0682 5.48907 22.8809 4.85121 22.4503 4.36409ZM10.2031 20.5218C10.2031 21.1452 9.69104 21.6523 9.06148 21.6523C8.43211 21.6523 7.91985 21.1452 7.91985 20.5218C7.91985 19.8985 8.43211 19.3913 9.06148 19.3913C9.69104 19.3913 10.2031 19.8985 10.2031 20.5218ZM18.2199 20.5218C18.2199 21.1452 17.7078 21.6523 17.0783 21.6523C16.4487 21.6523 15.9366 21.1452 15.9366 20.5218C15.9366 19.8985 16.4487 19.3913 17.0783 19.3913C17.7078 19.3913 18.2199 19.8985 18.2199 20.5218ZM21.4263 5.25182C21.5948 5.44239 21.6668 5.70157 21.6288 5.98198L21.2197 9.02175H16.5901L16.8637 4.95632H20.7222C21.008 4.95632 21.258 5.06126 21.4263 5.25182ZM11.7636 14.4348L11.4899 10.3694H15.1355L14.8618 14.4348H11.7636ZM11.3991 9.02175L11.1256 4.95632H15.4999L15.2263 9.02175H11.3991ZM9.76174 4.95632L10.0353 9.02175H4.92003L4.37269 4.95632H9.76174ZM5.10147 10.3694H10.126L10.3998 14.4348H5.64881L5.10147 10.3694ZM19.2646 14.4348H16.2256L16.4994 10.3694H21.0383L20.6531 13.2311C20.5652 13.8837 19.9292 14.4348 19.2646 14.4348Z" fill="#333333"/>
</svg>
