<svg width="11" height="11" viewBox="0 0 11 11" fill="none" xmlns="http://www.w3.org/2000/svg">
<path d="M3.75311 11C4.43147 11 4.98139 10.4711 4.98139 9.81863C4.98139 9.16617 4.43147 8.63725 3.75311 8.63725C3.07476 8.63725 2.52484 9.16617 2.52484 9.81863C2.52484 10.4711 3.07476 11 3.75311 11Z" fill="white"/>
<path d="M8.9392 11C9.61756 11 10.1675 10.4711 10.1675 9.81863C10.1675 9.16617 9.61756 8.63725 8.9392 8.63725C8.26084 8.63725 7.71092 9.16617 7.71092 9.81863C7.71092 10.4711 8.26084 11 8.9392 11Z" fill="white"/>
<path d="M2.78413 2.06085L2.36105 0.826962C2.19264 0.339162 1.72168 0.00733648 1.18734 0H0.272953C0.122201 0 0 0.117534 0 0.262531C0 0.407527 0.122201 0.525061 0.272953 0.525061H1.18734C1.48412 0.531367 1.74545 0.714654 1.84244 0.984496L3.56206 6.01195L3.43923 6.31385C3.28957 6.69022 3.32991 7.11204 3.54842 7.45585C3.77555 7.78936 4.15767 7.99518 4.572 8.00717H9.89458C10.0453 8.00717 10.1675 7.88963 10.1675 7.74464C10.1675 7.59964 10.0453 7.48211 9.89458 7.48211H4.57197C4.34218 7.47447 4.13184 7.35605 4.01243 7.16706C3.8836 6.98054 3.8581 6.74507 3.9442 6.53698L4.10796 6.14317C4.13257 6.08026 4.13732 6.01177 4.1216 5.94627L4.0397 5.74936L9.5943 5.19805C9.99873 5.16305 10.3343 4.88263 10.4268 4.50234L11 2.17896L2.78413 2.06085Z" fill="white"/>
</svg>
