<svg width="11" height="20" viewBox="0 0 11 20" fill="none" xmlns="http://www.w3.org/2000/svg">
<path d="M7.59301 4.95056C7.61868 4.91974 7.73869 4.81903 8.20998 4.81903L9.7552 4.81842C10.2579 4.81842 10.6667 4.38324 10.6667 3.84827V0.974121C10.6667 0.440063 10.2585 0.00488281 9.75663 0.00396727L7.46139 0C6.04479 0 4.84053 0.497284 3.97882 1.43829C3.12097 2.37503 2.66746 3.68271 2.66746 5.21973V6.76987H0.911615C0.408922 6.76987 0 7.20505 0 7.74002V10.8354C0 11.3704 0.408922 11.8056 0.911615 11.8056H2.66746V19.0298C2.66746 19.5648 3.07638 20 3.57907 20H6.58863C7.09132 20 7.50025 19.5648 7.50025 19.0298V11.8057H9.64651C10.1492 11.8057 10.558 11.3704 10.558 10.8357L10.5591 7.74017C10.5591 7.38876 10.3795 7.0636 10.0901 6.89163C9.95607 6.81198 9.80007 6.76987 9.6392 6.76987H7.50025V5.5452C7.50025 5.14603 7.55072 5.00153 7.59301 4.95056Z" fill="white"/>
</svg>
