<svg width="7" height="13" viewBox="0 0 7 13" fill="none" xmlns="http://www.w3.org/2000/svg">
<path d="M4.98292 3.21786C4.99976 3.19783 5.07851 3.13237 5.3878 3.13237L6.40185 3.13197C6.73174 3.13197 7 2.84911 7 2.50137V0.633179C7 0.286041 6.73212 0.00317383 6.40279 0.00257872L4.89654 0C3.96689 0 3.1766 0.323235 2.6111 0.934891C2.04814 1.54377 1.75052 2.39376 1.75052 3.39282V4.40041H0.598247C0.268355 4.40041 0 4.68328 0 5.03101V7.04302C0 7.39075 0.268355 7.67362 0.598247 7.67362H1.75052V12.3694C1.75052 12.7171 2.01887 13 2.34876 13H4.32379C4.65368 13 4.92204 12.7171 4.92204 12.3694V7.67372H6.33052C6.66042 7.67372 6.92868 7.39075 6.92868 7.04322L6.92943 5.03111C6.92943 4.8027 6.81153 4.59134 6.62165 4.47956C6.53367 4.42779 6.4313 4.40041 6.32573 4.40041H4.92204V3.60438C4.92204 3.34492 4.95516 3.25099 4.98292 3.21786Z" fill="#777777"/>
</svg>
