<svg width="21" height="14" viewBox="0 0 21 14" fill="none" xmlns="http://www.w3.org/2000/svg">
<path d="M6.80859 2.54545C8.23052 2.54545 9.51675 3.30014 10.2539 4.34003L12.0011 2.51993C10.9561 1.11446 8.94493 0 6.80859 0C3.068 0 0 3.13094 0 7C0 10.8691 3.068 14 6.80859 14C9.90944 14 12.5179 11.8491 13.3177 8.90909C13.49 8.29808 13.5762 7.66172 13.5762 7V6.36364H7.42383V8.90859H10.6846C10.0078 10.4105 8.51891 11.4545 6.80859 11.4545C4.43385 11.4545 2.46094 9.4563 2.46094 7C2.46094 4.5437 4.43385 2.54545 6.80859 2.54545Z" fill="#777777"/>
<path d="M19.1133 3.81818H16.6523V5.72727H14.8066V8.27273H16.6523V10.1818H19.1133V8.27273H21V5.72727H19.1133V3.81818Z" fill="#777777"/>
</svg>
