<svg width="30" height="20" viewBox="0 0 30 20" fill="none" xmlns="http://www.w3.org/2000/svg">
<path d="M9.47716 3.63636C11.4564 3.63636 13.2468 4.71449 14.2728 6.20005L16.7048 3.59991C15.2503 1.59209 12.4508 0 9.47716 0C4.27048 0 0 4.47277 0 10C0 15.5272 4.27048 20 9.47716 20C13.7934 20 17.4242 16.9273 18.5375 12.7273C18.7773 11.8544 18.8972 10.9453 18.8972 10V9.09091H10.3335V12.7266H14.8723C13.9303 14.8722 11.8578 16.3636 9.47716 16.3636C6.17166 16.3636 3.42548 13.509 3.42548 10C3.42548 6.491 6.17166 3.63636 9.47716 3.63636Z" fill="white"/>
<path d="M26.6046 5.45455H23.1791V8.18182H20.61V11.8182H23.1791V14.5455H26.6046V11.8182H29.2308V8.18182H26.6046V5.45455Z" fill="white"/>
</svg>
