<svg width="22" height="19" viewBox="0 0 22 19" fill="none" xmlns="http://www.w3.org/2000/svg">
<path d="M11 19C10.6868 19 10.3848 18.8899 10.1495 18.6898C9.26077 17.9354 8.40392 17.2265 7.64793 16.6011L7.64407 16.5979C5.42766 14.7644 3.5137 13.181 2.18201 11.6212C0.693375 9.87752 0 8.22423 0 6.41811C0 4.66332 0.619858 3.04441 1.74527 1.8594C2.88411 0.660369 4.44676 0 6.14587 0C7.4158 0 8.57881 0.389737 9.60251 1.15829C10.1191 1.54624 10.5874 2.02103 11 2.57484C11.4127 2.02103 11.8809 1.54624 12.3977 1.15829C13.4214 0.389737 14.5844 0 15.8543 0C17.5532 0 19.1161 0.660369 20.2549 1.8594C21.3803 3.04441 22 4.66332 22 6.41811C22 8.22423 21.3068 9.87752 19.8182 11.6211C18.4865 13.181 16.5727 14.7642 14.3566 16.5975C13.5993 17.2239 12.7411 17.9339 11.8503 18.6901C11.6152 18.8899 11.313 19 11 19ZM6.14587 1.251C4.81099 1.251 3.5847 1.76815 2.6926 2.7073C1.78723 3.66063 1.28856 4.97843 1.28856 6.41811C1.28856 7.93714 1.87015 9.29568 3.17415 10.823C4.43451 12.2994 6.30919 13.8502 8.47978 15.6459L8.48381 15.6491C9.24265 16.2769 10.1029 16.9886 10.9982 17.7485C11.8988 16.9871 12.7604 16.2743 13.5207 15.6455C15.6911 13.8498 17.5657 12.2994 18.826 10.823C20.1299 9.29568 20.7114 7.93714 20.7114 6.41811C20.7114 4.97843 20.2128 3.66063 19.3074 2.7073C18.4155 1.76815 17.189 1.251 15.8543 1.251C14.8764 1.251 13.9786 1.55276 13.1859 2.14779C12.4794 2.6783 11.9873 3.34893 11.6987 3.81818C11.5504 4.05949 11.2892 4.20352 11 4.20352C10.7108 4.20352 10.4496 4.05949 10.3013 3.81818C10.0129 3.34893 9.52077 2.6783 8.81413 2.14779C8.02139 1.55276 7.12358 1.251 6.14587 1.251Z" fill="#333333"/>
</svg>
