<svg width="22" height="20" viewBox="0 0 22 20" fill="none" xmlns="http://www.w3.org/2000/svg">
<path d="M4.96585 6.42633H0.683148C0.493075 6.42633 0.339062 6.5711 0.339062 6.74962V19.6766C0.339062 19.8552 0.493075 19.9999 0.683148 19.9999H4.96585C5.15592 19.9999 5.30994 19.8552 5.30994 19.6766V6.74962C5.30994 6.5711 5.15592 6.42633 4.96585 6.42633Z" fill="white"/>
<path d="M2.82605 0C1.26775 0 0 1.18984 0 2.65235C0 4.11551 1.26775 5.3058 2.82605 5.3058C4.38311 5.3058 5.64982 4.11544 5.64982 2.65235C5.64989 1.18984 4.38311 0 2.82605 0Z" fill="white"/>
<path d="M15.8592 6.10504C14.1391 6.10504 12.8676 6.7998 12.0963 7.58921V6.74962C12.0963 6.5711 11.9423 6.42633 11.7523 6.42633H7.65082C7.46075 6.42633 7.30674 6.5711 7.30674 6.74962V19.6766C7.30674 19.8552 7.46075 19.9999 7.65082 19.9999H11.9242C12.1142 19.9999 12.2682 19.8552 12.2682 19.6766V13.2808C12.2682 11.1255 12.8913 10.2859 14.4904 10.2859C16.2318 10.2859 16.3702 11.6319 16.3702 13.3917V19.6767C16.3702 19.8553 16.5243 20 16.7143 20H20.9892C21.1793 20 21.3333 19.8553 21.3333 19.6767V12.586C21.3333 9.38122 20.6829 6.10504 15.8592 6.10504Z" fill="white"/>
</svg>
