<svg width="6" height="8" viewBox="0 0 6 8" fill="none" xmlns="http://www.w3.org/2000/svg">
<path d="M5.84375 8H0.585449V7.10303L3.19043 4.26172C3.56641 3.84277 3.83317 3.49365 3.99072 3.21436C4.15186 2.93148 4.23242 2.6486 4.23242 2.36572C4.23242 1.99333 4.12679 1.69255 3.91553 1.46338C3.70785 1.23421 3.42676 1.11963 3.07227 1.11963C2.64974 1.11963 2.3221 1.24854 2.08936 1.50635C1.85661 1.76416 1.74023 2.11686 1.74023 2.56445H0.435059C0.435059 2.08822 0.54248 1.66032 0.757324 1.28076C0.975749 0.897624 1.28548 0.600423 1.68652 0.38916C2.09115 0.177897 2.55664 0.0722656 3.08301 0.0722656C3.84212 0.0722656 4.4401 0.263835 4.87695 0.646973C5.31738 1.02653 5.5376 1.5529 5.5376 2.22607C5.5376 2.61637 5.4266 3.02637 5.20459 3.45605C4.98617 3.88216 4.6263 4.36735 4.125 4.91162L2.21289 6.95801H5.84375V8Z" fill="white"/>
</svg>
