<svg width="13" height="11" viewBox="0 0 13 11" fill="none" xmlns="http://www.w3.org/2000/svg">
<path d="M4.84987 11C4.28771 11 3.70909 10.9529 3.12699 10.8586C2.10175 10.6923 1.06392 10.1378 0.770243 9.97183L0 9.53644L0.833917 9.25292C1.74549 8.94304 2.30002 8.75078 2.98645 8.44972C2.29912 8.10559 1.7694 7.48656 1.5144 6.68633L1.3204 6.07745L1.47949 6.10257C1.32863 5.94538 1.20952 5.78582 1.11718 5.64073C0.788789 5.12505 0.614924 4.49494 0.651919 3.95497L0.688418 3.4235L0.996178 3.54675C0.866349 3.29327 0.772524 3.02257 0.717379 2.73884C0.582988 2.0469 0.69546 1.31178 1.03416 0.668958L1.30225 0.160153L1.66079 0.605383C2.79473 2.01367 4.23098 2.84907 5.93561 3.09363C5.86598 2.59743 5.91815 2.11857 6.09083 1.68934C6.29187 1.18956 6.64952 0.765756 7.12479 0.463672C7.65264 0.128263 8.29275 -0.0342637 8.92722 0.00603471C9.60036 0.048794 10.2115 0.309554 10.6969 0.760629C10.934 0.696952 11.1086 0.628967 11.3447 0.537091C11.4867 0.481822 11.6478 0.419067 11.8493 0.347289L12.592 0.0827349L12.1077 1.51276C12.1396 1.50999 12.1725 1.50764 12.2069 1.5061L13 1.46898L12.5313 2.13129C12.5044 2.16923 12.4975 2.17999 12.488 2.19486C12.4502 2.25372 12.4032 2.32693 11.7598 3.21514C11.5988 3.43755 11.5183 3.72722 11.5333 4.03095C11.5903 5.18514 11.4534 6.22941 11.126 7.13464C10.8163 7.99106 10.3365 8.72586 9.69994 9.31865C8.91224 10.052 7.90783 10.5542 6.71448 10.8109C6.12911 10.9368 5.5005 11 4.84987 11Z" fill="#777777"/>
</svg>
