<svg width="25" height="20" viewBox="0 0 25 20" fill="none" xmlns="http://www.w3.org/2000/svg">
<path d="M9.18319 20C8.11874 20 7.02312 19.9144 5.92093 19.7429C3.97965 19.4405 2.01452 18.4324 1.45845 18.1306L0 17.339L1.57901 16.8235C3.30508 16.2601 4.35506 15.9105 5.65482 15.3631C4.35337 14.7374 3.35034 13.6119 2.8675 12.157L2.50017 11.0499L2.8014 11.0956C2.51576 10.8098 2.29021 10.5197 2.11537 10.2559C1.49357 9.31828 1.16435 8.17262 1.2344 7.19085L1.30351 6.22454L1.88625 6.44864C1.64042 5.98777 1.46277 5.49558 1.35835 4.9797C1.10388 3.72163 1.31685 2.38506 1.95818 1.21629L2.4658 0.291187L3.1447 1.1007C5.2918 3.66122 8.01132 5.18012 11.239 5.62478C11.1072 4.72261 11.206 3.85195 11.5329 3.07152C11.9136 2.16283 12.5908 1.39228 13.4907 0.84304C14.4902 0.233205 15.7023 -0.0622976 16.9036 0.0109722C18.1782 0.0887164 19.3354 0.562826 20.2545 1.38296C20.7033 1.26718 21.0341 1.14358 21.481 0.976529C21.7499 0.87604 22.0549 0.76194 22.4365 0.631435L23.8428 0.150427L22.9258 2.75048C22.9862 2.74544 23.0486 2.74116 23.1137 2.73836L24.6154 2.67087L23.7278 3.87507C23.677 3.94405 23.664 3.96362 23.646 3.99066C23.5744 4.09767 23.4854 4.23079 22.2671 5.8457C21.9622 6.25009 21.8099 6.77677 21.8382 7.329C21.9462 9.42753 21.6868 11.3262 21.0669 12.9721C20.4806 14.5292 19.572 15.8652 18.3667 16.943C16.8752 18.2764 14.9734 19.1894 12.7138 19.6562C11.6054 19.8852 10.4151 20 9.18319 20Z" fill="white"/>
</svg>
