<svg width="20" height="24" viewBox="0 0 20 24" fill="none" xmlns="http://www.w3.org/2000/svg">
<path d="M9.91477 12.9319C9.93912 12.9319 9.96346 12.9319 9.99268 12.9319C10.0024 12.9319 10.0122 12.9319 10.0219 12.9319C10.0365 12.9319 10.056 12.9319 10.0706 12.9319C11.4972 12.907 12.6512 12.3951 13.5033 11.416C15.3779 9.25906 15.0663 5.5614 15.0322 5.20853C14.9104 2.55954 13.6834 1.29219 12.6707 0.700766C11.916 0.258439 11.0347 0.0198799 10.0511 0H10.017C10.0122 0 10.0024 0 9.99755 0H9.96833C9.42786 0 8.3664 0.0894595 7.34877 0.680886C6.32626 1.27231 5.07977 2.53966 4.95805 5.20853C4.92396 5.5614 4.61234 9.25906 6.48694 11.416C7.33416 12.3951 8.48813 12.907 9.91477 12.9319ZM6.25809 5.33278C6.25809 5.31787 6.26296 5.30296 6.26296 5.29302C6.42364 1.72955 8.902 1.34686 9.96346 1.34686H9.98294C9.99268 1.34686 10.0073 1.34686 10.0219 1.34686C11.3365 1.37668 13.5715 1.92338 13.7224 5.29302C13.7224 5.30793 13.7224 5.32284 13.7273 5.33278C13.7321 5.36757 14.073 8.74715 12.5246 10.5264C11.9111 11.2321 11.0931 11.58 10.017 11.59C10.0073 11.59 10.0024 11.59 9.99268 11.59C9.98294 11.59 9.97807 11.59 9.96833 11.59C8.89713 11.58 8.07426 11.2321 7.46562 10.5264C5.92213 8.75709 6.25322 5.3626 6.25809 5.33278Z" fill="#333333"/>
<path d="M19.9986 19.0648C19.9986 19.0598 19.9986 19.0549 19.9986 19.0499C19.9986 19.0101 19.9938 18.9704 19.9938 18.9257C19.9646 17.9416 19.9013 15.6405 17.7881 14.905C17.7735 14.9 17.754 14.895 17.7394 14.89C15.5434 14.3185 13.7175 13.0263 13.698 13.0114C13.401 12.7977 12.992 12.8722 12.7827 13.1754C12.5733 13.4786 12.6463 13.896 12.9433 14.1098C13.0261 14.1694 14.964 15.5461 17.3888 16.1822C18.5233 16.5947 18.6499 17.8323 18.684 18.9654C18.684 19.0101 18.684 19.0499 18.6889 19.0897C18.6937 19.537 18.6645 20.2278 18.5866 20.6254C17.7978 21.0826 14.7059 22.6631 10.0024 22.6631C5.31836 22.6631 2.20702 21.0777 1.41336 20.6204C1.33545 20.2228 1.30137 19.532 1.31111 19.0847C1.31111 19.0449 1.31598 19.0052 1.31598 18.9604C1.35006 17.8273 1.47666 16.5898 2.61115 16.1773C5.03595 15.5411 6.97385 14.1595 7.05662 14.1048C7.35364 13.8911 7.42667 13.4736 7.2173 13.1704C7.00793 12.8673 6.59893 12.7927 6.30191 13.0064C6.28244 13.0213 4.46627 14.3135 2.26058 14.8851C2.2411 14.89 2.22649 14.895 2.21189 14.9C0.0987069 15.6405 0.0354089 17.9416 0.00619438 18.9207C0.00619438 18.9654 0.00619427 19.0052 0.00132519 19.0449C0.00132519 19.0499 0.00132519 19.0549 0.00132519 19.0598C-0.00354389 19.3183 -0.00841287 20.6453 0.249648 21.3112C0.298339 21.4405 0.385983 21.5498 0.502841 21.6244C0.648913 21.7238 4.14978 24 10.0073 24C15.8648 24 19.3657 21.7188 19.5117 21.6244C19.6237 21.5498 19.7162 21.4405 19.7649 21.3112C20.0084 20.6502 20.0035 19.3233 19.9986 19.0648Z" fill="#333333"/>
</svg>
