<svg width="18" height="20" viewBox="0 0 18 20" fill="none" xmlns="http://www.w3.org/2000/svg">
<path d="M17.902 15.8462C14.8852 12.8302 12.4392 8.54749 12.1145 7.9675V6.65769C12.1145 6.39692 12.17 5.97349 12.2794 5.39915C12.3103 5.23771 12.2045 5.08192 12.0431 5.0514C11.8818 5.02058 11.7263 5.12632 11.6955 5.28776C11.6109 5.72935 11.5578 6.08366 11.534 6.36045H6.50902C6.42098 5.3491 5.96382 3.54811 5.85014 3.11049C5.95909 2.85643 6.12923 2.6895 6.36788 2.60069C7.13539 2.31611 8.43758 2.89961 8.87444 3.14863C8.96568 3.20051 9.07784 3.20051 9.16893 3.14863C9.60625 2.89961 10.9086 2.31566 11.6764 2.60069C11.9146 2.6895 12.0847 2.85673 12.1941 3.11049C12.1497 3.28016 12.0522 3.6624 11.946 4.11863C11.9088 4.27885 12.0083 4.43861 12.168 4.47584C12.3281 4.51307 12.4879 4.41358 12.5251 4.25383C12.6667 3.64653 12.792 3.1735 12.7935 3.16877C12.8086 3.11049 12.8062 3.04945 12.786 2.99284C12.6563 2.628 12.4439 2.35457 12.1529 2.17497C12.1256 1.76192 11.9733 0.767197 11.1599 0.0715495C11.0929 0.0144818 11.0044 -0.0105426 10.9176 0.00410582C10.8312 0.018449 10.7555 0.0703289 10.7107 0.146012C10.6849 0.189195 10.12 1.1534 10.0396 2.13087C9.99443 2.14567 9.94881 2.16032 9.90242 2.1765C9.51943 2.30849 9.19869 2.46199 9.02199 2.55308C8.84468 2.46199 8.5244 2.30849 8.1411 2.1765C8.09502 2.16032 8.04955 2.14567 8.00392 2.13087C7.92336 1.1534 7.35893 0.189195 7.33315 0.146012C7.28829 0.0703289 7.2126 0.018449 7.12578 0.00410582C7.03942 -0.0105426 6.95061 0.0144818 6.88393 0.0715495C6.07018 0.767197 5.91789 1.76222 5.89089 2.17497C5.5999 2.35457 5.3875 2.628 5.2578 2.99284C5.23766 3.04945 5.23522 3.11049 5.25063 3.16877C5.25749 3.1941 5.92934 5.7356 5.92934 6.65769V7.9675C5.60433 8.54749 3.15834 12.8302 0.141526 15.8462C0.0820171 15.9056 0.0507366 15.9874 0.0551616 16.0713C0.0591289 16.1554 0.0986492 16.2335 0.163652 16.2866C0.196305 16.3131 0.914994 16.8951 2.15859 17.5457C2.15813 17.5457 2.15782 17.546 2.15782 17.5465C2.10747 17.6103 2.08519 17.6919 2.09679 17.7725C2.10823 17.8529 2.15218 17.9251 2.2181 17.9722C2.24098 17.9889 2.78999 18.379 3.73955 18.8154C3.77998 18.8337 3.82195 18.8427 3.8636 18.8427C3.97621 18.8427 4.08394 18.7782 4.13399 18.6695C4.2025 18.5202 4.13719 18.3436 3.98811 18.2751C3.46199 18.0333 3.06404 17.805 2.82417 17.6574C5.24437 14.4821 7.13768 10.117 7.15676 10.0721C7.22176 9.92154 7.15233 9.74668 7.00173 9.68167C6.85066 9.61667 6.6758 9.6861 6.6108 9.83716C6.59218 9.87989 4.81575 13.9738 2.5248 17.0655C1.7141 16.6478 1.11946 16.2506 0.802385 16.0229C3.64433 13.0926 5.93529 9.16364 6.40068 8.3418H11.6427C12.1085 9.16364 14.3995 13.0926 17.2414 16.0229C16.9251 16.2501 16.3317 16.647 15.519 17.0655C13.2276 13.9738 11.4512 9.87989 11.4326 9.83716C11.368 9.6861 11.1927 9.61667 11.0421 9.68167C10.891 9.74668 10.8218 9.92154 10.8868 10.0721C10.9061 10.117 12.7995 14.4816 15.2193 17.6571C14.4573 18.1248 12.0899 19.4053 9.02199 19.4053C7.70256 19.4053 6.37139 19.1719 5.06554 18.7112C4.91051 18.6564 4.74083 18.7378 4.6862 18.8928C4.63188 19.0474 4.71321 19.2173 4.86778 19.2721C6.23741 19.7549 7.63527 20 9.02199 20C12.945 20 15.7096 18.0551 15.8254 17.9722C15.8917 17.9251 15.9353 17.8529 15.9467 17.7725C15.9582 17.6919 15.9365 17.6103 15.8862 17.5465C15.8857 17.546 15.8852 17.5457 15.8852 17.5457C17.1285 16.8951 17.8472 16.3131 17.8797 16.2866C17.9447 16.2335 17.9844 16.1554 17.9888 16.0713C17.9928 15.9874 17.9614 15.9056 17.902 15.8462ZM11.0409 0.801682C11.349 1.19109 11.4758 1.64015 11.5278 1.95372C11.2681 1.9145 10.9771 1.92244 10.6573 1.97752C10.7282 1.53197 10.9037 1.09389 11.0409 0.801682ZM7.00295 0.801682C7.14012 1.09389 7.31529 1.53197 7.38671 1.97752C7.06673 1.92244 6.77574 1.9145 6.51604 1.95372C6.56807 1.64015 6.69457 1.19109 7.00295 0.801682ZM11.5199 7.74717H6.52397V6.95509H11.5199V7.74717Z" fill="black"/>
</svg>
