<svg width="20" height="20" viewBox="0 0 20 20" fill="none" xmlns="http://www.w3.org/2000/svg">
<path d="M19.7726 7.73941C19.0213 4.99222 18.2399 3.17001 18.2321 3.15201C18.2172 3.11752 18.196 3.08624 18.1694 3.05969C16.6167 1.50696 14.2511 0.653839 14.1512 0.618286C14.1501 0.617981 14.149 0.617676 14.1479 0.617371C14.1472 0.617065 14.1464 0.616608 14.1457 0.616455C14.0703 0.591278 12.2728 0 10.0282 0C7.78381 0 5.98633 0.591278 5.91095 0.616302C5.91019 0.616608 5.90942 0.617065 5.90866 0.617371C5.90744 0.617676 5.90637 0.617828 5.9053 0.618286C5.87982 0.627441 5.26947 0.845947 4.46274 1.26099C4.31671 1.33606 4.25934 1.51505 4.33441 1.66092C4.38705 1.76331 4.49097 1.8222 4.59885 1.8222C4.64447 1.8222 4.69101 1.81152 4.7345 1.78925C5.15457 1.57318 5.52246 1.41159 5.77103 1.3089C6.12152 2.5148 7.89505 4.03214 10.0282 4.03214C12.1613 4.03214 13.9346 2.51511 14.2854 1.3092C14.9742 1.59454 16.5842 2.33566 17.7086 3.43933C17.7969 3.65082 18.1418 4.49539 18.5634 5.77896C18.2545 6.70609 17.7177 7.43179 16.9653 7.93579C16.64 8.15384 16.3399 8.28308 16.1366 8.35495L15.761 6.99722C15.7213 6.85394 15.582 6.76193 15.4347 6.78207C15.2875 6.80206 15.1776 6.9278 15.1776 7.07642V16.8475C15.0279 16.9687 14.6669 17.2232 14.0245 17.4678C13.8712 17.5261 13.7943 17.6978 13.8525 17.8511C13.8977 17.9695 14.0105 18.0424 14.1302 18.0424C14.1653 18.0424 14.201 18.0362 14.2358 18.0229C14.6408 17.8688 14.9503 17.7081 15.1776 17.5693V18.1754C14.8436 18.4491 13.4314 19.406 10.0284 19.406C8.89786 19.406 7.26776 19.2923 5.92178 18.7509C5.3476 18.5199 5.01923 18.2874 4.879 18.174V17.57C5.60287 18.0118 7.16537 18.674 10.0284 18.674C11.1452 18.674 12.1642 18.5725 13.0569 18.3722C13.217 18.3363 13.3177 18.1775 13.2817 18.0174C13.2458 17.8574 13.087 17.7567 12.9269 17.7927C12.0767 17.9834 11.1015 18.08 10.0284 18.08C6.6568 18.08 5.21973 17.1202 4.879 16.8469V7.07642C4.879 6.9278 4.76929 6.80206 4.62204 6.78207C4.47464 6.76208 4.33548 6.85394 4.29581 6.99722L3.91998 8.35495C3.71689 8.28293 3.41675 8.15369 3.09128 7.93579C2.33902 7.43179 1.80222 6.70609 1.49338 5.77911C1.91467 4.49631 2.25967 3.65082 2.34802 3.43933C2.72583 3.06854 3.19031 2.70691 3.72955 2.36389C3.86795 2.27585 3.90884 2.09213 3.8208 1.95374C3.73276 1.81534 3.54919 1.77444 3.41064 1.86264C2.81525 2.24136 2.3027 2.6442 1.88721 3.05969C1.86066 3.08624 1.83929 3.11752 1.82449 3.15201C1.81671 3.17001 1.03516 4.99222 0.283966 7.73941C0.276947 7.76489 0.273438 7.79175 0.273438 7.81815C0.273438 7.85889 0.28183 7.89917 0.298004 7.9364C0.875702 9.26804 2.48154 10.4359 3.73444 10.4359C3.86795 10.4359 3.98514 10.3468 4.02069 10.2182L4.28497 9.26331V18.3073C4.28497 18.3833 4.31412 18.4564 4.3663 18.5115C4.42398 18.5724 5.82458 20 10.0284 20C14.2322 20 15.6328 18.5724 15.6903 18.5115C15.7426 18.4564 15.7718 18.3833 15.7718 18.3073V9.26346L16.0359 10.2182C16.0716 10.347 16.1887 10.4361 16.3223 10.4361C17.5751 10.4361 19.1809 9.26804 19.7588 7.9364C19.7749 7.89917 19.7833 7.85843 19.7833 7.81784C19.7832 7.79129 19.7797 7.76489 19.7726 7.73941ZM10.0282 3.43811C8.07785 3.43811 6.55609 1.9989 6.33087 1.11038C6.87912 0.9552 8.33679 0.594025 10.0282 0.594025C11.7198 0.594025 13.1775 0.9552 13.7257 1.11038C13.5004 1.9989 11.9788 3.43811 10.0282 3.43811ZM3.51257 9.82712C2.54745 9.70139 1.3678 8.79822 0.885315 7.79282C0.995483 7.3938 1.10596 7.01584 1.21429 6.66077C1.96381 8.16559 3.1897 8.73734 3.76083 8.93005L3.51257 9.82712ZM16.544 9.82712L16.2958 8.93005C16.8669 8.73734 18.0928 8.16559 18.8423 6.66077C18.9505 7.01584 19.061 7.39365 19.1711 7.79282C18.6888 8.79807 17.5092 9.70139 16.544 9.82712Z" fill="black"/>
</svg>
