<svg width="20" height="20" viewBox="0 0 20 20" fill="none" xmlns="http://www.w3.org/2000/svg">
<path d="M18.2129 6.56203C18.1622 6.40594 17.9948 6.32049 17.8387 6.37099C17.6826 6.4215 17.5972 6.58904 17.6477 6.74514C18.24 8.57345 18.9516 11.2323 19.2683 14.2003C18.6919 14.677 17.7457 14.7308 17.1092 14.7369L15.168 7.72063C15.1782 6.87225 15.5206 6.06933 15.5241 6.06154C15.5894 5.91109 15.5205 5.73607 15.37 5.67077C15.2196 5.60531 15.0447 5.67443 14.9792 5.82488C14.9626 5.86303 14.5734 6.77016 14.5734 7.75954V7.75985V18.1874C14.2714 18.4311 13.0849 19.216 10.2969 19.2685V3.25087L11.4932 4.43419C11.5509 4.49111 11.6264 4.51995 11.7021 4.51995C11.7696 4.51995 11.837 4.49721 11.8922 4.45113C11.9148 4.43236 12.4496 3.98528 12.9935 3.42467C13.3102 3.09813 13.5402 2.82424 13.7079 2.5952C14.2609 2.81829 15.7893 3.49395 16.8419 4.52468C16.8979 4.6588 17.0566 5.04699 17.2674 5.63231C17.3111 5.75332 17.4252 5.8287 17.5468 5.8287C17.5803 5.8287 17.6143 5.82305 17.6475 5.811C17.8018 5.75545 17.8819 5.58532 17.8264 5.4309C17.5558 4.68001 17.373 4.2549 17.3654 4.2372C17.3505 4.20287 17.3292 4.17144 17.3027 4.14489C16.2167 3.05907 14.6884 2.35457 14.0242 2.08144C14.155 1.80754 14.1554 1.65236 14.1554 1.57454C14.1554 1.02171 13.71 0.6288 12.8317 0.406784C12.1649 0.238175 11.2386 0.156235 9.99984 0.156235C8.76098 0.156235 7.83477 0.238175 7.16797 0.406784C6.28967 0.6288 5.84427 1.02171 5.84427 1.57454C5.84427 1.65251 5.84472 1.80754 5.97549 2.08159C5.31112 2.35472 3.78265 3.05922 2.69684 4.14489C2.67029 4.17144 2.64908 4.20287 2.63412 4.2372C2.61017 4.29305 2.03812 5.62636 1.42303 7.74764C0.85556 9.70459 0.148163 12.7202 0.00030539 15.9735C-0.00305154 16.0477 0.0213625 16.1203 0.0688173 16.1772C0.101929 16.217 0.771789 17.0013 1.98044 17.0012C2.21786 17.0012 2.47635 16.9708 2.75452 16.8988C2.85721 16.8721 2.93793 16.7928 2.96631 16.6904L4.832 9.94674V15.3688C4.832 15.5328 4.96505 15.6659 5.12909 15.6659C5.29312 15.6659 5.42602 15.5328 5.42602 15.3688V7.7626C5.42602 7.76153 5.42618 7.76061 5.42618 7.75954C5.42618 6.77032 5.03708 5.86303 5.02044 5.82488C4.95514 5.67458 4.78042 5.60561 4.62997 5.67092C4.47952 5.73607 4.4104 5.91079 4.4754 6.06139C4.47906 6.06948 4.82132 6.87194 4.83169 7.72033L2.89032 14.7369C2.25433 14.7308 1.3089 14.677 0.732422 14.2012C1.27106 9.18517 2.94632 5.03325 3.15781 4.52453C4.2102 3.49395 5.73868 2.81844 6.29181 2.5952C6.4595 2.82439 6.68945 3.09813 7.00622 3.42467C7.55005 3.98528 8.08487 4.43236 8.10745 4.45113C8.22494 4.54909 8.39767 4.54177 8.50647 4.43419L9.70291 3.25057V19.2685C6.94091 19.2152 5.73242 18.4267 5.42618 18.1854V16.557C5.42618 16.393 5.29312 16.2599 5.12909 16.2599C4.96505 16.2599 4.832 16.393 4.832 16.557V18.3202C4.832 18.3962 4.86114 18.4692 4.91348 18.5243C4.96536 18.5791 6.22726 19.8654 10 19.8654C13.7727 19.8654 15.0343 18.5791 15.0862 18.5243C15.1384 18.4692 15.1675 18.3962 15.1675 18.3202V9.94674L17.0332 16.6904C17.0616 16.7928 17.1423 16.8721 17.245 16.8988C18.94 17.3383 19.8915 16.2248 19.9312 16.1772C19.9786 16.1203 20.003 16.0477 19.9997 15.9735C19.8292 12.2278 18.9339 8.78799 18.2129 6.56203ZM2.72659 15.3287L2.44095 16.3611C1.94946 16.4568 1.48941 16.4011 1.07117 16.1946C0.845947 16.0835 0.686188 15.9526 0.599823 15.8722C0.616608 15.5373 0.639648 15.2048 0.667572 14.8752C1.31256 15.2446 2.11945 15.3154 2.72659 15.3287ZM8.28384 3.81881C8.08166 3.64058 7.75604 3.34456 7.43271 3.01116C6.51016 2.06008 6.43844 1.67113 6.43844 1.57454C6.43844 1.32674 6.78543 0.75026 9.99984 0.75026C11.1723 0.75026 12.0763 0.828538 12.6862 0.982652C13.0855 1.08366 13.5614 1.2683 13.5614 1.57454C13.5614 1.67098 13.4898 2.05901 12.5703 3.0078C12.2464 3.34197 11.9189 3.63982 11.7158 3.81865L10.661 2.77541C11.3728 2.64189 11.9922 2.29476 12.3868 1.79106C12.4879 1.66197 12.4654 1.47521 12.3363 1.37419C12.2072 1.27287 12.0204 1.29561 11.9192 1.4247C11.5243 1.9287 10.7898 2.24181 10.002 2.24227C10.0006 2.24227 9.99938 2.24227 9.99801 2.24227C9.21035 2.24166 8.47564 1.92854 8.08014 1.42455C7.97882 1.29546 7.7922 1.27303 7.66311 1.37419C7.53402 1.47551 7.51159 1.66228 7.61276 1.79122C8.00796 2.29476 8.62732 2.64174 9.33883 2.77526L8.28384 3.81881ZM17.5586 16.3609L17.2729 15.3287C17.8802 15.3154 18.6877 15.2446 19.3327 14.8749C19.3606 15.2046 19.3834 15.5376 19.4002 15.8731C19.1926 16.0677 18.5574 16.5541 17.5586 16.3609Z" fill="black"/>
</svg>
