<svg width="16" height="16" viewBox="0 0 16 16" fill="none" xmlns="http://www.w3.org/2000/svg">
<path d="M13.483 1.28543H12.767V0.0915527H11.5739V1.28543H3.69886V0.0915527H2.50568V1.28543H1.78977C0.802892 1.28543 0 2.0888 0 3.07626V13.5824C0 14.5699 0.802892 15.3732 1.78977 15.3732H13.483C14.4698 15.3732 15.2727 14.5699 15.2727 13.5824V3.07626C15.2727 2.0888 14.4698 1.28543 13.483 1.28543ZM14.0795 13.5824C14.0795 13.9116 13.8119 14.1793 13.483 14.1793H1.78977C1.46081 14.1793 1.19318 13.9116 1.19318 13.5824V5.70279H14.0795V13.5824ZM14.0795 4.50891H1.19318V3.07626C1.19318 2.7471 1.46081 2.47931 1.78977 2.47931H2.50568V3.6732H3.69886V2.47931H11.5739V3.6732H12.767V2.47931H13.483C13.8119 2.47931 14.0795 2.7471 14.0795 3.07626V4.50891Z" fill="#777777"/>
<path d="M3.46023 6.95637H2.26705V8.15025H3.46023V6.95637Z" fill="#777777"/>
<path d="M5.84659 6.95637H4.65341V8.15025H5.84659V6.95637Z" fill="#777777"/>
<path d="M8.23295 6.95637H7.03977V8.15025H8.23295V6.95637Z" fill="#777777"/>
<path d="M10.6193 6.95637H9.42614V8.15025H10.6193V6.95637Z" fill="#777777"/>
<path d="M13.0057 6.95637H11.8125V8.15025H13.0057V6.95637Z" fill="#777777"/>
<path d="M3.46023 9.34413H2.26705V10.538H3.46023V9.34413Z" fill="#777777"/>
<path d="M5.84659 9.34413H4.65341V10.538H5.84659V9.34413Z" fill="#777777"/>
<path d="M8.23295 9.34413H7.03977V10.538H8.23295V9.34413Z" fill="#777777"/>
<path d="M10.6193 9.34413H9.42614V10.538H10.6193V9.34413Z" fill="#777777"/>
<path d="M3.46023 11.7319H2.26705V12.9258H3.46023V11.7319Z" fill="#777777"/>
<path d="M5.84659 11.7319H4.65341V12.9258H5.84659V11.7319Z" fill="#777777"/>
<path d="M8.23295 11.7319H7.03977V12.9258H8.23295V11.7319Z" fill="#777777"/>
<path d="M10.6193 11.7319H9.42614V12.9258H10.6193V11.7319Z" fill="#777777"/>
<path d="M13.0057 9.34413H11.8125V10.538H13.0057V9.34413Z" fill="#777777"/>
</svg>
