<svg width="20" height="10" viewBox="0 0 20 10" fill="none" xmlns="http://www.w3.org/2000/svg">
<path d="M19.9923 2.75758C19.9553 2.59782 19.7956 2.49833 19.6359 2.53526L19.3284 2.60636C19.1099 2.09626 18.7469 1.68763 18.2411 1.3852C18.1004 1.30112 17.9179 1.3469 17.8338 1.48774C17.7496 1.62843 17.7954 1.81077 17.9362 1.895C18.2982 2.11152 18.5635 2.39289 18.7365 2.74339L11.4509 4.42918C11.4288 4.26378 11.417 4.09501 11.417 3.92366C11.417 2.977 11.7604 2.31248 12.4665 1.89195C13.0857 1.52329 14.0051 1.33637 15.1988 1.33637C15.8558 1.33637 16.4334 1.39283 16.9157 1.50407C17.0758 1.54114 17.2351 1.44135 17.272 1.28144C17.3089 1.12168 17.2093 0.962225 17.0494 0.925299C16.5234 0.803839 15.9007 0.742193 15.1988 0.742193C12.4752 0.742193 11.011 1.68397 10.84 3.5431C10.2871 3.43614 9.71249 3.43614 9.15981 3.5431C8.98876 1.68412 7.52453 0.742346 4.80084 0.742346C2.58114 0.742346 1.199 1.36857 0.670434 2.60621L0.364037 2.53526C0.204583 2.49848 0.044671 2.59782 0.00774478 2.75773C-0.0293341 2.91749 0.0703058 3.0771 0.230065 3.11402L0.494958 3.17536C0.448419 3.40821 0.424767 3.65754 0.424767 3.9235C0.424767 5.4709 1.23211 6.83321 2.44763 7.61156L1.31359 8.74559C1.19763 8.86156 1.19763 9.0497 1.31359 9.16567C1.37173 9.22365 1.44772 9.25265 1.52371 9.25265C1.59969 9.25265 1.67568 9.22365 1.73382 9.16567L2.9916 7.90773C3.54336 8.1592 4.156 8.29958 4.80084 8.29958C6.60214 8.29958 8.15258 7.20552 8.8229 5.64699L9.99996 5.37462L11.177 5.64699C11.8473 7.20537 13.3976 8.29943 15.1988 8.29943C15.8436 8.29943 16.4564 8.15905 17.008 7.90758L18.2661 9.16567C18.3241 9.22365 18.4001 9.25265 18.4762 9.25265C18.5522 9.25265 18.6282 9.22365 18.6862 9.16567C18.8023 9.0497 18.8023 8.86156 18.6862 8.74559L17.552 7.61141C18.7677 6.83321 19.575 5.4709 19.575 3.92366C19.575 3.65815 19.5511 3.40882 19.5037 3.17552L19.7699 3.11402C19.9298 3.07694 20.0293 2.91749 19.9923 2.75758ZM10.8287 4.14735C10.8358 4.28788 10.8497 4.42674 10.8699 4.56361L9.99996 4.76487L9.13006 4.56361C9.1502 4.42674 9.16424 4.28788 9.17126 4.1472C9.71401 4.02665 10.2856 4.0265 10.8287 4.14735ZM2.0686 1.89195C2.68765 1.52329 3.60699 1.33652 4.80084 1.33652C5.99484 1.33652 6.91403 1.52329 7.53323 1.89195C8.23956 2.31248 8.58288 2.977 8.58288 3.9235C8.58288 4.09501 8.57113 4.26378 8.549 4.42918L1.26324 2.74339C1.43719 2.39137 1.70422 2.10877 2.0686 1.89195ZM4.80084 7.70555C4.32339 7.70555 3.86639 7.61629 3.44524 7.45409L4.17767 6.72167L5.40768 6.43709C5.56759 6.40016 5.66708 6.24056 5.63015 6.0808C5.59307 5.92088 5.43347 5.82124 5.27386 5.85832L3.96099 6.16213C3.90682 6.17464 3.85723 6.2021 3.81786 6.24147L2.8796 7.17974C1.76678 6.52071 1.01894 5.30794 1.01894 3.9235C1.01894 3.70362 1.03832 3.49961 1.07555 3.30964L8.42373 5.00993C8.41061 5.05327 8.39703 5.09645 8.38253 5.13917L6.42986 5.59099C6.26995 5.62791 6.17046 5.78752 6.20739 5.94728C6.23928 6.08461 6.36135 6.17754 6.49654 6.17754C6.51867 6.17754 6.54125 6.17494 6.56368 6.16975L8.0714 5.82094C7.41558 6.94704 6.19518 7.70555 4.80084 7.70555ZM15.1988 7.7054C13.8046 7.7054 12.5843 6.94689 11.9285 5.82094L15.8224 6.72197L16.5545 7.45409C16.1334 7.61614 15.6764 7.7054 15.1988 7.7054ZM18.981 3.92366C18.981 5.30794 18.2331 6.52071 17.1203 7.17974L16.1822 6.24162C16.143 6.20226 16.0934 6.17479 16.0392 6.16228L11.6175 5.13917C11.6031 5.09645 11.5895 5.05327 11.5763 5.00993L18.9244 3.30964C18.9616 3.49961 18.981 3.70362 18.981 3.92366Z" fill="black"/>
</svg>
