<svg width="14" height="20" viewBox="0 0 14 20" fill="none" xmlns="http://www.w3.org/2000/svg">
<path d="M13.717 4.95681L12.9552 1.7218V0.297088C12.9552 0.133056 12.8223 0 12.6581 0H4.75975C4.59557 0 4.46267 0.133056 4.46267 0.297088C4.46267 0.46112 4.59557 0.594023 4.75975 0.594023H5.10781V1.45675H2.70287V0.594023H3.57156C3.73559 0.594023 3.86849 0.46112 3.86849 0.297088C3.86849 0.133056 3.73559 0 3.57156 0H1.34835C1.18432 0 1.05127 0.133056 1.05127 0.297088V1.71859L0.289243 4.95681C0.281919 4.98763 0.27963 5.01952 0.282529 5.05095L1.57357 19.729C1.587 19.8823 1.71548 20 1.86944 20H5.71572C5.86815 20 5.99587 19.8846 6.01128 19.7331L7.00294 9.99601L7.43935 14.2779C7.45598 14.4412 7.60124 14.5599 7.76497 14.5434C7.92808 14.5268 8.04695 14.3809 8.03032 14.2178L7.29835 7.0352C7.28294 6.88353 7.15538 6.76818 7.00294 6.76818C6.85051 6.76818 6.72295 6.88353 6.70738 7.0352L5.44747 19.4059H2.1415L0.893948 5.22262C1.5812 4.94475 2.26052 4.49523 2.78634 3.96545C3.38738 3.35967 3.742 2.70339 3.82516 2.05062H7.38777V4.72732H6.32195C6.15791 4.72732 6.02486 4.86022 6.02486 5.02425C6.02486 5.18828 6.15791 5.32134 6.32195 5.32134H7.68471C7.84874 5.32134 7.98179 5.18828 7.98179 5.02425V2.05078H10.181C10.2642 2.70355 10.6188 3.35983 11.22 3.9656C11.7457 4.49538 12.4251 4.94491 13.1124 5.22277L11.8648 19.4059H8.55873L8.15025 15.3969C8.13377 15.2336 7.9879 15.1146 7.82478 15.1313C7.66151 15.148 7.54265 15.2939 7.55928 15.457L7.99492 19.7331C8.01048 19.8846 8.13804 20 8.29048 20H12.1368C12.2909 20 12.4192 19.8823 12.4326 19.729L13.7238 5.05095C13.7266 5.01937 13.7243 4.98763 13.717 4.95681ZM12.3612 1.45675H11.8976V0.594023H12.3612V1.45675ZM8.82423 1.45675V0.594023H11.3036V1.45675H8.82423ZM1.64544 0.594023H2.10885V1.45675H1.64544V0.594023ZM1.00152 4.52346L1.58349 2.05078H3.2232C3.05062 3.03756 2.05621 3.99963 1.00152 4.52346ZM5.70183 1.45675V0.594023H8.23021V1.45675H5.70183ZM10.7828 2.05078H12.4222L13.0045 4.52346C11.95 3.99963 10.9554 3.03756 10.7828 2.05078Z" fill="black"/>
</svg>
