<svg width="20" height="20" viewBox="0 0 20 20" fill="none" xmlns="http://www.w3.org/2000/svg">
<path d="M19.6089 14.4014C19.5337 13.9908 19.4271 13.4106 19.3325 12.8989C19.2959 12.7002 19.1642 12.5316 18.9802 12.4481C18.9079 12.4152 18.8308 12.3976 18.7536 12.394C18.1855 7.78748 16.6044 4.08447 16.5884 4.04709C16.5734 4.0126 16.5522 3.98117 16.5257 3.95462C15.7718 3.20068 14.7781 2.65045 14.0509 2.31216C14.1166 2.11166 14.15 1.93253 14.15 1.77582C14.15 0.942993 13.4443 0.531921 12.8521 0.33371C12.1809 0.109253 11.251 0 10.0091 0C8.76721 0 7.83718 0.109253 7.1661 0.333862C6.09326 0.692902 5.86819 1.31622 5.86819 1.77582C5.86819 1.93253 5.9016 2.11166 5.96737 2.31232C5.76168 2.40799 5.55676 2.51022 5.35748 2.6178C5.21313 2.69562 5.15911 2.87582 5.23693 3.02017C5.29064 3.11966 5.39288 3.17627 5.49862 3.17627C5.54623 3.17627 5.59445 3.16483 5.63931 3.14072C5.82272 3.04184 6.01101 2.94754 6.20022 2.85919C6.43475 3.32001 6.79257 3.86154 7.27276 4.4809C7.51583 4.79431 7.88265 4.97375 8.27953 4.97375H8.28442C8.6845 4.97223 9.05315 4.78912 9.29607 4.47128L9.35604 4.3927C10.0805 5.20309 11.2634 6.84494 11.533 8.0481C11.7984 9.23233 11.566 10.397 11.0363 10.5786H10.4902C10.3132 10.2565 9.97051 10.0375 9.5776 10.0375H8.36254C7.96963 10.0375 7.62707 10.2563 7.45007 10.5786H6.1871C6.18694 10.5786 6.18679 10.5786 6.18649 10.5786C6.11477 10.417 5.9927 9.97894 5.96035 8.83865C5.93655 8.00186 5.97454 7.21375 5.97485 7.20581C5.975 7.20322 5.97485 7.20047 5.97485 7.19788C5.975 7.19559 5.9753 7.1936 5.9753 7.19131C5.9753 5.54062 4.80175 4.52927 4.19232 4.11545C4.33682 3.99048 4.49368 3.86719 4.66152 3.7468C4.79473 3.65128 4.8254 3.46558 4.72988 3.33237C4.63421 3.19901 4.44851 3.16849 4.3153 3.26401C4.00616 3.48572 3.72921 3.71811 3.4927 3.95477C3.46615 3.98132 3.44479 4.0126 3.42999 4.04709C3.41381 4.08447 1.83209 7.78885 1.26476 12.394C1.1874 12.3976 1.11035 12.4153 1.03802 12.4481C0.853998 12.5317 0.722315 12.7002 0.685541 12.899C0.591089 13.4108 0.484583 13.9908 0.409357 14.4016C0.320093 14.8888 0.554468 15.3706 0.992395 15.6006C1.44772 15.8398 2.19372 16.1226 3.17471 16.1224C3.18936 16.1224 3.20416 16.1224 3.21896 16.1223C3.76492 16.1176 4.22741 15.7227 4.31851 15.1834L4.55639 13.7743C4.58798 13.5875 4.53381 13.3995 4.40777 13.2585C4.38336 13.2312 4.3565 13.2072 4.32842 13.1851L5.38738 9.35684C5.42889 10.0749 5.53158 10.7994 5.81783 11.0857C5.83965 11.1075 5.86407 11.1252 5.89001 11.1388V12.3506C5.87032 12.3608 5.8514 12.3734 5.83401 12.3885C5.12432 13.0003 4.82266 14.7731 4.53106 16.4874C4.36016 17.4908 4.18362 18.5284 3.96603 18.8791C3.91522 18.961 3.90728 19.0627 3.94497 19.1515C3.98251 19.2403 4.06078 19.3053 4.15493 19.3259C4.18575 19.3327 7.26727 20 10.0093 20C12.751 20 15.8323 19.3327 15.8632 19.3259C15.9573 19.3053 16.0357 19.2403 16.0733 19.1515C16.1108 19.0625 16.1029 18.961 16.0521 18.8791C15.8345 18.5284 15.6579 17.4908 15.4872 16.4874C15.2101 14.8587 14.9237 13.1781 14.2872 12.4895V10.9801C14.4281 10.7736 14.5698 10.3598 14.6301 9.35455L15.0671 10.9341C15.1107 11.0922 15.2743 11.185 15.4325 11.1412C15.5906 11.0976 15.6834 10.9338 15.6396 10.7758L14.6376 7.15332C14.6446 6.63925 14.7938 6.1499 15.0824 5.69809C15.4213 5.16571 15.8813 4.79797 16.1718 4.60052C16.562 5.59296 17.7296 8.79456 18.1805 12.6045C17.4269 12.9906 16.7167 13.0623 16.2715 13.058C16.2698 13.053 16.268 13.0479 16.2666 13.0428L15.9524 11.907C15.9088 11.7488 15.7454 11.656 15.587 11.6998C15.4289 11.7436 15.3361 11.9072 15.3799 12.0653L15.6897 13.1853C15.6616 13.2074 15.6347 13.2314 15.6105 13.2585C15.4844 13.3997 15.4303 13.5876 15.4617 13.7743L15.6997 15.1834C15.7908 15.7227 16.2532 16.1176 16.7993 16.1223C16.8141 16.1224 16.8287 16.1224 16.8434 16.1224C17.8244 16.1224 18.5704 15.8398 19.0258 15.6006C19.4638 15.3706 19.698 14.8886 19.6089 14.4014ZM8.28213 4.37958C8.28137 4.37958 8.28045 4.37958 8.27969 4.37958C8.06759 4.37958 7.87197 4.28391 7.74227 4.11682C6.92867 3.06778 6.46221 2.21451 6.46221 1.77582C6.46221 0.799103 8.39108 0.594025 10.0091 0.594025C11.6272 0.594025 13.556 0.799103 13.556 1.77582C13.556 2.21451 13.0896 3.06778 12.276 4.11682C12.1464 4.28391 11.9506 4.37958 11.7387 4.37958C11.7378 4.37958 11.7369 4.37958 11.7361 4.37958C11.5219 4.37881 11.3243 4.28085 11.1944 4.11057L10.5189 3.22617C11.0751 3.07129 11.9751 2.76566 12.3114 2.33658C12.4125 2.20734 12.3898 2.02072 12.2607 1.91956C12.1318 1.81839 11.945 1.84097 11.8437 1.97006C11.7814 2.04956 11.5547 2.26212 10.796 2.51862C10.4554 2.63367 10.1399 2.7124 10.0093 2.74323C9.87881 2.7124 9.5631 2.63367 9.22237 2.51862C8.46356 2.26212 8.2365 2.04941 8.1741 1.96991C8.07278 1.84082 7.88601 1.81839 7.75707 1.91956C7.62798 2.02087 7.60555 2.20749 7.70672 2.33658C8.04333 2.7655 8.94314 3.07114 9.49932 3.22601L8.82382 4.11057C8.69381 4.28085 8.49651 4.37881 8.28213 4.37958ZM13.6932 11.1726V12.3164H13.0978L13.3261 12.0341C13.4062 11.935 13.4141 11.7955 13.3456 11.6878L13.0172 11.1726H13.6932ZM12.3129 11.1726L12.7298 11.8269L12.3339 12.3164H10.6175C10.6176 12.3087 10.6181 12.3009 10.6181 12.2931V11.1726H12.3129ZM8.36254 10.6316H9.5776C9.82388 10.6316 10.0241 10.8318 10.0241 11.078V12.2931C10.0241 12.5392 9.82372 12.7396 9.5776 12.7396H8.36254C8.11642 12.7396 7.91607 12.5392 7.91607 12.2931V11.078C7.91607 10.8318 8.11642 10.6316 8.36254 10.6316ZM6.48403 11.1726H7.32205V12.2931C7.32205 12.3009 7.3225 12.3087 7.32266 12.3164H6.48403V11.1726ZM3.84609 4.60129C4.34963 4.94537 5.36175 5.80414 5.38067 7.15302L3.75134 13.0431C3.74996 13.0481 3.74813 13.053 3.74661 13.058C3.3012 13.0623 2.59136 12.9906 1.83773 12.6047C2.28832 8.79623 3.45562 5.59479 3.84609 4.60129ZM3.97061 13.6752L3.73257 15.0844C3.68954 15.3394 3.47134 15.526 3.21377 15.5283C2.33486 15.5348 1.6705 15.2858 1.26858 15.0746C1.06198 14.9661 0.951501 14.7386 0.993616 14.5085C1.06884 14.0981 1.17535 13.5182 1.2698 13.0067C1.27041 13.0031 1.27209 12.9942 1.28369 12.989C1.28765 12.9872 1.29131 12.9865 1.29452 12.9865C1.30093 12.9865 1.30535 12.9892 1.30749 12.9904C2.3814 13.6279 3.42083 13.6749 3.94482 13.6461C3.94817 13.6458 3.95672 13.6453 3.96465 13.6542C3.97259 13.6632 3.97122 13.6719 3.97061 13.6752ZM10.009 19.406C7.87518 19.406 5.52258 18.9903 4.64108 18.8185C4.82617 18.2941 4.96334 17.4886 5.11669 16.5871C5.35427 15.1907 5.64755 13.4688 6.152 12.9082C6.1636 12.9095 6.17519 12.9105 6.1871 12.9105H7.5256C7.71526 13.167 8.01968 13.3336 8.36254 13.3336H9.5776C9.92046 13.3336 10.2249 13.167 10.4147 12.9105H10.7409C11.2339 13.5515 11.0098 14.9863 10.792 16.3766C10.6149 17.5079 10.4464 18.5857 10.6137 19.3956C10.411 19.4023 10.209 19.406 10.009 19.406ZM15.377 18.8185C14.6601 18.9583 12.9704 19.2592 11.2164 19.3668C11.0354 18.6626 11.2097 17.549 11.3789 16.4685C11.5852 15.1512 11.7967 13.7975 11.4201 12.9105H13.8682C14.3715 13.4734 14.6643 15.1927 14.9015 16.5872C15.0549 17.4884 15.1921 18.2941 15.377 18.8185ZM14.5814 5.37872C14.2241 5.93826 14.0429 6.54785 14.0429 7.19086V7.19131C14.0429 7.19345 14.0431 7.19559 14.0432 7.19772C14.0432 7.20047 14.0431 7.20306 14.0432 7.20581C14.0435 7.21375 14.0815 8.00186 14.0577 8.83865C14.0255 9.9791 13.9033 10.417 13.8316 10.5786H11.8829C11.9923 10.3966 12.079 10.1778 12.1394 9.92615C12.2807 9.33914 12.2712 8.62595 12.1127 7.91824C11.7904 6.48056 10.4496 4.70398 9.72256 3.91251L10.009 3.53745L10.7222 4.47113C10.9649 4.78912 11.3336 4.97223 11.7337 4.97375H11.7385C12.1356 4.97375 12.5023 4.79416 12.7453 4.48074C13.2255 3.86154 13.5835 3.31985 13.818 2.85904C14.4105 3.13583 15.1826 3.55835 15.8262 4.11606C15.487 4.34769 14.9716 4.76624 14.5814 5.37872ZM18.7495 15.0746C18.3476 15.2858 17.6823 15.5347 16.8045 15.5283C16.5467 15.526 16.3285 15.3394 16.2855 15.0844L16.0475 13.6752C16.047 13.6719 16.0455 13.6632 16.0534 13.6542C16.06 13.6469 16.0672 13.6459 16.0711 13.6459C16.072 13.6459 16.0728 13.6459 16.0733 13.6461C16.5974 13.6749 17.6367 13.6279 18.7106 12.9904C18.7138 12.9886 18.7223 12.9834 18.7346 12.9889C18.7461 12.9942 18.7477 13.0031 18.7484 13.0067C18.8429 13.5182 18.9492 14.0981 19.0245 14.5084C19.0666 14.7386 18.9561 14.9661 18.7495 15.0746Z" fill="black"/>
</svg>
