<svg width="16" height="20" viewBox="0 0 16 20" fill="none" xmlns="http://www.w3.org/2000/svg">
<path d="M15.0989 8.23008C15.0437 8.17336 14.968 8.14137 14.8889 8.14137H11.3558L9.46649 1.12391C9.28837 0.462187 8.68532 0 8.00001 0C7.31469 0 6.71165 0.462187 6.53352 1.12391L4.64419 8.14137H1.11114C1.03204 8.14137 0.956296 8.17336 0.90114 8.23008C0.845984 8.2868 0.816101 8.3634 0.818288 8.4425L1.1145 19.1063C1.12841 19.6074 1.53204 20 2.03337 20H13.9666C14.4679 20 14.8716 19.6074 14.8855 19.1063L15.1817 8.4425C15.1839 8.3634 15.1541 8.2868 15.0989 8.23008ZM8.35184 1.27621C8.39872 1.10203 8.49454 0.947461 8.62634 0.828086C8.75575 0.945312 8.85306 1.0991 8.90071 1.27621L10.7491 8.14137H10.1034L8.30341 1.45602L8.35184 1.27621ZM7.66676 11.8782C7.66708 11.6947 7.81645 11.5455 8.00001 11.5455C8.18364 11.5455 8.33305 11.6948 8.33329 11.8784V11.8788C8.33329 11.8789 8.33329 11.8789 8.33329 11.879C8.33317 12.0627 8.18372 12.2121 8.00001 12.2121C7.81641 12.2121 7.66704 12.0629 7.66676 11.8793C7.66676 11.8791 7.6668 11.8789 7.6668 11.8788C7.6668 11.8786 7.66676 11.8784 7.66676 11.8782ZM8.00001 10.9595C7.88247 10.9595 7.77012 10.982 7.66669 11.0223V8.7273H8.33329V11.0223C8.22989 10.982 8.11755 10.9595 8.00001 10.9595ZM6.50352 8.14141L8.00001 2.58297L9.49649 8.14141H6.50352ZM7.0993 1.27621C7.20872 0.869805 7.57911 0.585938 8.00001 0.585938C8.01766 0.585938 8.03505 0.587148 8.05251 0.588125C7.9302 0.74582 7.83895 0.927227 7.78602 1.12391L5.89669 8.14137H5.25098L7.0993 1.27621ZM1.41235 8.7273H7.08075V11.5858H1.49176L1.41235 8.7273ZM14.2998 19.09C14.2948 19.2717 14.1484 19.4141 13.9666 19.4141H2.03337C1.85161 19.4141 1.70524 19.2717 1.7002 19.09L1.682 18.4343H14.318L14.2998 19.09ZM14.3777 16.2828H3.61602C3.45423 16.2828 3.32305 16.4139 3.32305 16.5757C3.32305 16.7375 3.45423 16.8687 3.61602 16.8687H14.3615L14.3343 17.8484H1.66575L1.63852 16.8687H2.36376C2.52555 16.8687 2.65673 16.7375 2.65673 16.5757C2.65673 16.4139 2.52555 16.2828 2.36376 16.2828H1.62223L1.59501 15.303H14.405L14.3777 16.2828ZM14.4213 14.7171H1.57876L1.55153 13.7374H14.4485L14.4213 14.7171ZM14.5082 11.5858H13.6363C13.4745 11.5858 13.3434 11.717 13.3434 11.8788C13.3434 12.0406 13.4745 12.1718 13.6363 12.1718H14.492L14.4648 13.1515H1.53528L1.50805 12.1718H7.12891C7.25153 12.5354 7.59555 12.798 8.00001 12.798C8.40446 12.798 8.74844 12.5354 8.8711 12.1718H12.3838C12.5456 12.1718 12.6768 12.0406 12.6768 11.8788C12.6768 11.717 12.5456 11.5858 12.3838 11.5858H8.91923V8.72734H14.5877L14.5082 11.5858Z" fill="black"/>
</svg>
