<svg width="20" height="20" viewBox="0 0 20 20" fill="none" xmlns="http://www.w3.org/2000/svg">
<path d="M19.6098 12.5124C19.2344 12.0639 18.5653 11.7912 17.4402 11.6283C15.5035 11.3481 14.9547 10.9456 14.9049 10.9061C14.821 10.8136 14.6939 10.7904 14.5779 10.8383C14.4604 10.887 14.3936 11.0121 14.4018 11.1391C14.4018 11.1409 14.4056 11.3362 14.2758 11.5408C14.0791 11.851 13.6662 12.0421 13.0816 12.0934C12.4746 12.1466 11.6754 11.6489 10.7704 10.6537C9.94535 9.74641 9.22758 8.64244 8.92103 8.17109C8.52064 7.5554 7.09212 5.40987 6.05223 3.84951C5.96129 3.71294 5.77697 3.67601 5.6404 3.76696C5.50399 3.8579 5.46706 4.04238 5.558 4.17894C6.59697 5.73808 8.02428 7.88179 8.42299 8.49488C8.73732 8.97828 9.4734 10.1105 10.3309 11.0533C11.3803 12.2073 12.3234 12.7565 13.1337 12.6851C13.6746 12.6376 14.3989 12.4559 14.7776 11.859C14.8356 11.7676 14.8782 11.6774 14.9096 11.5929C15.3723 11.8073 16.17 12.0448 17.355 12.2162C18.3117 12.3547 18.8835 12.57 19.1542 12.8935C19.3879 13.1729 19.4059 13.5501 19.4059 14.0526C19.4059 14.4243 19.2753 14.9718 19.1099 15.5159C18.5734 15.802 17.9315 16.0513 17.1998 16.2576C17.0419 16.3022 16.95 16.4664 16.9946 16.6243C17.0315 16.7552 17.1505 16.8407 17.2802 16.8407C17.3069 16.8407 17.3341 16.837 17.3611 16.8294C17.9042 16.6762 18.4021 16.4995 18.8496 16.3016C18.683 16.7709 18.5281 17.1577 18.4655 17.3108C16.9987 18.436 13.5803 19.1251 11.7363 19.1251C10.2569 19.1251 9.92475 18.2979 9.67115 17.4449C10.2145 17.507 10.8813 17.5416 11.6166 17.5416C13.0218 17.5416 14.6754 17.4152 16.1845 17.1112C16.3453 17.0789 16.4494 16.9221 16.4171 16.7613C16.3847 16.6006 16.2285 16.4964 16.0673 16.5288C13.4378 17.0584 10.7422 16.9965 9.49598 16.8236C8.05403 11.0983 6.0707 9.08051 4.65316 8.3983C4.28359 8.22053 3.85421 8.24388 3.50478 8.46101C3.15292 8.67951 2.94036 9.05702 2.93579 9.47068L2.84728 17.8369H2.15789C2.02728 15.7648 1.80206 12.1799 1.70242 10.5037C1.63177 9.31962 1.37603 8.73963 1.12869 8.17887C0.853728 7.55555 0.594023 6.96672 0.594023 5.47319C0.594023 4.0819 1.4183 2.89873 2.10968 2.15121C2.62008 1.59945 3.13644 1.1957 3.42712 0.985742C3.69292 1.38384 4.24926 2.21712 4.90096 3.19399C4.99206 3.3304 5.17653 3.36733 5.31295 3.27623C5.44936 3.18514 5.48629 3.00066 5.39519 2.86425C4.48058 1.49355 3.75396 0.405604 3.75396 0.405604C3.6647 0.271937 3.48541 0.233485 3.34899 0.318934C3.31497 0.340296 2.50396 0.853296 1.68426 1.73632C0.582427 2.92345 0 4.21556 0 5.47319C0 7.09184 0.297546 7.76628 0.585173 8.41859C0.821684 8.95493 1.04507 9.46152 1.10946 10.5391C1.25351 12.9631 1.65985 19.3764 1.66397 19.4408C1.67389 19.5973 1.80359 19.7191 1.96029 19.7191H3.12744C3.29025 19.7191 3.42269 19.588 3.42452 19.4252L3.52981 9.47709C3.5321 9.26759 3.63982 9.07639 3.8182 8.96562C3.99673 8.85468 4.20714 8.84309 4.39559 8.93372C5.16662 9.30482 5.90209 10.0227 6.58156 11.0677C7.52806 12.5232 8.33082 14.5724 8.96742 17.1583C8.96879 17.1643 8.97047 17.1701 8.9723 17.176C8.99839 17.2597 9.02388 17.3476 9.05089 17.4405C9.3144 18.3479 9.71266 19.7191 11.7363 19.7191C13.6512 19.7191 17.3031 19.0098 18.8966 17.7275C18.9352 17.6965 18.9653 17.6565 18.9843 17.6111C19.0258 17.5124 20 15.1794 20 14.0526C20 13.465 19.9707 12.9436 19.6098 12.5124ZM2.23922 19.1251C2.22869 18.9577 2.21359 18.7205 2.19528 18.4309H2.84088L2.83355 19.1251H2.23922Z" fill="black"/>
</svg>
