<svg width="20" height="18" viewBox="0 0 20 18" fill="none" xmlns="http://www.w3.org/2000/svg">
<path d="M19.9883 13.0727L16.7398 1.89261C16.7179 1.81692 16.6667 1.75314 16.5978 1.71515C16.5793 1.70523 16.5602 1.69729 16.5404 1.69134C16.5396 1.69104 16.5389 1.69043 16.538 1.69028C13.4568 0.795041 10.2799 0.542813 7.09583 0.94061C6.93301 0.960904 6.81766 1.10937 6.83795 1.27218C6.85825 1.435 7.00702 1.55035 7.16953 1.53006C9.90192 1.18872 12.629 1.33871 15.2918 1.97516C11.8096 2.80554 8.19232 2.8057 4.70996 1.97562C5.14148 1.87277 5.57605 1.78198 6.01047 1.70477C6.17191 1.67608 6.27963 1.52197 6.25095 1.36038C6.22211 1.19879 6.06784 1.09121 5.90656 1.1199C5.08548 1.26578 4.26318 1.45773 3.4624 1.69028C3.46225 1.69043 3.46195 1.69058 3.46164 1.69058C3.36765 1.7182 3.28906 1.79159 3.25977 1.89261C3.25977 1.89261 0.610382 11.0128 0.0117799 13.0729C-0.0101927 13.1484 -0.00119003 13.2298 0.0368044 13.2989C0.0746462 13.3678 0.138581 13.419 0.214264 13.4409C0.608246 13.5554 1.0094 13.664 1.41071 13.7653C1.35883 13.9701 1.30695 14.175 1.25507 14.3798C1.21692 14.5306 1.30145 14.6854 1.44916 14.7346C2.66254 15.1389 3.90933 15.4597 5.15949 15.6895L5.13553 15.8906C5.12271 15.9986 5.17001 16.1051 5.25882 16.168C6.25278 16.8725 8.02524 17.2932 9.99988 17.2932C11.9744 17.2932 13.7468 16.8725 14.7409 16.168C14.8297 16.1051 14.877 15.9986 14.8641 15.8906L14.8401 15.6895C16.0903 15.4597 17.3371 15.1389 18.5504 14.7346C18.6982 14.6854 18.7827 14.5307 18.7445 14.3798L18.5891 13.7655C18.9861 13.6652 19.3872 13.5568 19.7858 13.4409C19.8615 13.419 19.9253 13.3678 19.9633 13.2987C20.0011 13.2298 20.0103 13.1484 19.9883 13.0727ZM3.74789 2.34183C7.84519 3.47647 12.1549 3.47647 16.2517 2.34183L16.7542 4.07096C12.3282 5.2262 7.67124 5.2262 3.24558 4.07096L3.74789 2.34183ZM0.665467 12.952C1.2363 10.9876 3.07971 4.64164 3.07971 4.64164C3.28021 4.69413 3.48102 4.74509 3.68243 4.79285C2.97397 7.59178 2.2652 10.3909 1.55627 13.1898C1.25842 13.1146 0.960419 13.0351 0.665467 12.952ZM5.22998 15.0976C4.10922 14.8899 2.99121 14.6084 1.89899 14.2568C2.6868 11.1457 3.47476 8.03428 4.26227 4.92316C4.96982 5.07499 5.68179 5.19904 6.39697 5.29395C6.13483 7.49854 5.87222 9.70314 5.60977 11.9079L5.22998 15.0976ZM14.7696 15.0976L14.6442 14.0438C14.6248 13.8808 14.4768 13.7644 14.3141 13.784C14.1513 13.8033 14.0349 13.951 14.0543 14.114L14.2527 15.7797C13.3298 16.3575 11.7603 16.699 9.99988 16.699C8.23932 16.699 6.6698 16.3575 5.7471 15.7797L6.19968 11.9781C6.4014 10.2843 6.6521 8.17893 6.98673 5.36506C7.98785 5.47599 8.99371 5.53229 9.99988 5.53229C11.0056 5.53229 12.0116 5.47599 13.0127 5.36506C13.2694 7.5225 13.4424 8.97453 13.6026 10.3201L13.9141 12.9362C13.9321 13.0871 14.0602 13.198 14.2087 13.198C14.2205 13.198 14.2324 13.1974 14.2441 13.196C14.4071 13.1767 14.5235 13.0288 14.504 12.866L14.1925 10.2497C14.0322 8.90403 13.8591 7.45185 13.6026 5.2938C14.3178 5.19889 15.0299 5.07483 15.7373 4.92316C16.1466 6.53907 16.5558 8.15513 16.9649 9.77119L18.1006 14.2568C17.0084 14.6084 15.8904 14.8899 14.7696 15.0976ZM18.4433 13.1899L17.5408 9.62532C17.1329 8.0146 16.7252 6.40372 16.3172 4.79285C16.5186 4.74509 16.7194 4.69413 16.9199 4.64164L19.3344 12.952C19.0371 13.0358 18.7389 13.1153 18.4433 13.1899Z" fill="black"/>
</svg>
