<svg width="20" height="18" viewBox="0 0 20 18" fill="none" xmlns="http://www.w3.org/2000/svg">
<path d="M19.9858 14.7314C19.9246 14.3974 19.8326 13.8963 19.7615 13.513C19.8645 13.3059 19.9095 13.0682 19.8813 12.8236C19.5395 9.88182 18.8264 7.26997 18.2886 5.59669C18.2381 5.43968 18.0699 5.35332 17.9127 5.40382C17.7557 5.45433 17.6694 5.62248 17.7197 5.77965C18.2495 7.42729 18.9516 9.99886 19.2879 12.8922C19.3217 13.1861 19.1501 13.4606 18.8707 13.5598C18.5399 13.677 18.1598 13.7547 17.7084 13.7972C17.4039 13.8261 17.1236 13.6332 17.0422 13.3387L15.1976 6.67152C15.2081 5.30403 15.7768 4.35158 16.9792 3.69896C17.0645 3.91304 17.1899 4.23805 17.3396 4.65691C17.3834 4.77898 17.4983 4.85512 17.621 4.85512C17.6544 4.85512 17.6883 4.84947 17.7216 4.83757C17.8769 4.78203 17.9578 4.61113 17.9022 4.45579C17.6132 3.64723 17.4156 3.18748 17.4074 3.16826C17.3924 3.13362 17.3711 3.10203 17.3444 3.07533C15.9431 1.67427 13.8086 0.904462 13.7184 0.872419C13.7148 0.871045 13.7112 0.869825 13.7076 0.868757L13.5159 0.80879C13.2178 0.555188 12.7446 0.486524 12.5432 0.45738C11.917 0.366895 11.0873 0.367047 10.127 0.3672H9.8729C8.91266 0.367047 8.08289 0.366895 7.45667 0.45738C7.25831 0.486066 6.79627 0.553052 6.49751 0.797498C6.42304 0.821454 6.35102 0.846174 6.27869 0.873334C6.1554 0.917585 4.04496 1.68602 2.6555 3.07548C2.6288 3.10219 2.60743 3.13362 2.59248 3.16826C2.57417 3.21098 0.735945 7.51473 0.118727 12.8237C0.0904986 13.0683 0.135359 13.3059 0.238509 13.513C0.167403 13.8963 0.0753924 14.3974 0.0142047 14.7314C-0.0533917 15.1009 0.124526 15.4664 0.457167 15.641C0.771803 15.8061 1.28679 16.0011 1.96321 16.0011H1.99464C2.408 15.9972 2.75804 15.698 2.82716 15.2894L3.01011 14.206C3.25883 14.0478 3.45002 13.8004 3.53349 13.4982L4.80287 8.90999V14.3591C4.80287 14.7956 4.97376 15.1995 5.26719 15.4958V15.5906C5.26719 16.7622 7.3018 17.6457 10 17.6457C12.6979 17.6457 14.7324 16.7622 14.7324 15.5906V15.4961C15.0262 15.1998 15.1971 14.7958 15.1971 14.3591V8.90999L16.4665 13.498C16.5501 13.8003 16.7412 14.0476 16.99 14.2059L17.173 15.2894C17.242 15.698 17.5922 15.9972 18.0055 16.0009C18.016 16.0011 18.0264 16.0011 18.037 16.0011C18.7132 16.0011 19.2284 15.8061 19.543 15.641C19.8755 15.4664 20.0534 15.1009 19.9858 14.7314ZM14.5998 6.71013V14.3591C14.5998 14.7437 14.3793 15.1016 14.0381 15.2708C13.3522 15.6112 12.0947 16.0168 10 16.0168C7.90528 16.0168 6.64796 15.6112 5.96192 15.2708C5.62074 15.1016 5.40025 14.7437 5.40025 14.3591V6.71013C5.40025 5.12764 4.73847 3.98079 3.38105 3.21586C4.00544 2.67296 4.74107 2.2422 5.33921 1.94053C5.53437 2.2802 5.88303 2.72987 6.39451 3.30314C6.45356 3.36922 6.53535 3.40294 6.61744 3.40294C6.68824 3.40294 6.75935 3.37791 6.81626 3.32695C6.9394 3.21724 6.95008 3.02833 6.84037 2.9052C6.30448 2.30491 6.02403 1.92421 5.87998 1.68342C6.02448 1.61888 6.14899 1.56639 6.2465 1.52672C6.33225 1.84471 6.70365 2.42393 8.04825 3.79112C8.91327 4.67049 9.78974 5.47234 9.79859 5.48027C9.85566 5.53245 9.92783 5.55855 10 5.55855C10.0723 5.55855 10.1445 5.53245 10.2016 5.48027C10.2103 5.47234 11.0869 4.67049 11.9518 3.79112C13.2967 2.42378 13.6681 1.84456 13.7537 1.52656C13.8515 1.56624 13.9764 1.61888 14.1214 1.68358C13.5083 2.71873 11.1447 5.00877 10.0005 6.06804C9.581 5.67833 8.57499 4.73198 7.64573 3.7693C7.53113 3.65059 7.34208 3.64723 7.22336 3.76182C7.10465 3.87642 7.10129 4.06547 7.21589 4.18419C8.43567 5.44792 9.78516 6.68251 9.79859 6.69487C9.85566 6.7469 9.92783 6.773 10.0002 6.773C10.0723 6.773 10.1445 6.7469 10.2016 6.69487C10.5963 6.33415 13.8448 3.34556 14.6597 1.93931C15.2577 2.24083 15.9936 2.67158 16.6191 3.21571C15.2615 3.98079 14.5998 5.12764 14.5998 6.71013ZM7.54227 1.04866C8.12592 0.964277 8.97416 0.964582 9.8729 0.964582H10.1271C11.0262 0.964734 11.8741 0.964277 12.4577 1.04866C12.6735 1.07979 13.1738 1.17271 13.1789 1.36314C13.139 1.6729 11.9214 3.0793 10 4.8542C8.07862 3.0793 6.86097 1.6729 6.8213 1.36314C6.82618 1.17271 7.32667 1.07979 7.54227 1.04866ZM2.23802 15.1899C2.21727 15.3126 2.11259 15.4025 1.9893 15.4035C1.42091 15.4084 0.993665 15.2477 0.734724 15.1119C0.634932 15.0596 0.581526 14.9499 0.601973 14.8389C0.642256 14.6188 0.695967 14.3256 0.748304 14.0417C0.80583 14.073 0.866255 14.1004 0.929731 14.1229C1.30739 14.2567 1.73448 14.3447 2.23542 14.392C2.2812 14.3964 2.32667 14.3978 2.37184 14.3971L2.23802 15.1899ZM2.95762 13.3389C2.87629 13.6332 2.59614 13.8259 2.29158 13.7972C1.84022 13.7547 1.45997 13.677 1.12947 13.5598C0.849775 13.4606 0.678114 13.1861 0.712141 12.8925C1.22728 8.46184 2.60575 4.74541 3.0211 3.69911C4.22318 4.35173 4.79173 5.30418 4.80226 6.67152L2.95762 13.3389ZM13.0251 16.555C12.2218 16.8731 11.1476 17.0483 10 17.0483C8.85224 17.0483 7.77787 16.8731 6.97465 16.555C6.53077 16.379 6.20133 16.1684 6.02113 15.9536C6.80878 16.2824 8.07938 16.6142 10 16.6142C11.9202 16.6142 13.1906 16.2826 13.9784 15.9539C13.7981 16.1686 13.4688 16.379 13.0251 16.555ZM19.2653 15.1119C19.0063 15.2477 18.5779 15.4084 18.0107 15.4035C17.8874 15.4025 17.7827 15.3126 17.7621 15.1899L17.6282 14.3971C17.6733 14.3978 17.7188 14.3964 17.7647 14.392C18.2655 14.3447 18.6926 14.2567 19.0703 14.1229C19.1338 14.1003 19.1943 14.073 19.2517 14.0417C19.304 14.3255 19.3578 14.6186 19.3982 14.8389C19.4185 14.9499 19.3651 15.0596 19.2653 15.1119Z" fill="black"/>
</svg>
